<?xml version="1.0" standalone="no"?><!DOCTYPE svg PUBLIC "-//W3C//DTD SVG 1.1//EN" "http://www.w3.org/Graphics/SVG/1.1/DTD/svg11.dtd"><svg t="1775280499464" class="icon" viewBox="0 0 1024 1024" version="1.1" xmlns="http://www.w3.org/2000/svg" p-id="13937" xmlns:xlink="http://www.w3.org/1999/xlink" width="200" height="200"><path d="M515 512m-341.2 0a341.2 341.2 0 1 0 682.4 0 341.2 341.2 0 1 0-682.4 0Z" fill="#5097FF" p-id="13938"></path><path d="M723.4 173.1c-2.7 0-5.4-0.7-7.8-2.2-2.4-1.5-3.1-1.8-4.6-2.7-0.7-0.4-1.5-0.9-2.7-1.5-7.2-4.1-9.7-13.3-5.6-20.5 4.1-7.2 13.3-9.7 20.5-5.6 1.1 0.6 1.9 1.1 2.5 1.4 1.8 1 2.8 1.6 5.6 3.3 7.1 4.3 9.3 13.6 5 20.6-2.9 4.6-7.8 7.2-12.9 7.2z" fill="#06275B" p-id="13939"></path><path d="M512 939.1c-57.6 0-113.6-11.3-166.2-33.6C294.9 884 249.2 853.2 210 814c-39.2-39.2-70-84.9-91.5-135.7C96.2 625.6 84.9 569.6 84.9 512c0-57.6 11.3-113.6 33.6-166.2C140 294.9 170.8 249.2 210 210c39.2-39.2 84.9-70 135.7-91.5C398.4 96.2 454.4 84.9 512 84.9c60.8 0 119.5 12.5 174.5 37.2 7.6 3.4 10.9 12.3 7.6 19.8-3.4 7.6-12.3 10.9-19.8 7.6-51.1-22.9-105.7-34.5-162.2-34.5-53.6 0-105.6 10.5-154.5 31.2-47.3 20-89.7 48.6-126.2 85.1-36.5 36.5-65.1 78.9-85.1 126.2-20.7 48.9-31.2 100.9-31.2 154.5s10.5 105.6 31.2 154.5c20 47.3 48.6 89.7 85.1 126.2 36.5 36.5 78.9 65.1 126.2 85.1 48.9 20.7 100.9 31.2 154.5 31.2s105.6-10.5 154.5-31.2c47.3-20 89.7-48.6 126.2-85.1 36.5-36.5 65.1-78.9 85.1-126.2 20.7-48.9 31.2-100.9 31.2-154.5 0-57.2-11.9-112.5-35.4-164.1-22.7-49.9-55-94-95.9-130.9-6.2-5.5-6.6-15-1.1-21.2 5.5-6.2 15-6.6 21.2-1.1 44 39.7 78.7 87 103.1 140.7 25.3 55.6 38.1 115 38.1 176.6 0 57.6-11.3 113.6-33.6 166.2C884 729.1 853.2 774.8 814 814s-84.9 70-135.7 91.5c-52.7 22.3-108.7 33.6-166.3 33.6z" fill="#06275B" p-id="13940"></path><path d="M282.7 677.6c-17.2 0-31.1-13.9-31.1-31.1V525.7c0-17.2 13.9-31.1 31.1-31.1 17.2 0 31.1 13.9 31.1 31.1v120.8c-0.1 17.1-14 31.1-31.1 31.1zM435.6 677.6c-17.2 0-31.1-13.9-31.1-31.1V464.7c0-17.2 13.9-31.1 31.1-31.1 17.2 0 31.1 13.9 31.1 31.1v181.8c-0.1 17.1-14 31.1-31.1 31.1zM588.4 677.6c-17.2 0-31.1-13.9-31.1-31.1v-269c0-17.2 13.9-31.1 31.1-31.1 17.2 0 31.1 13.9 31.1 31.1v269c0 17.1-13.9 31.1-31.1 31.1zM741.3 677.6c-17.2 0-31.1-13.9-31.1-31.1V464.7c0-17.2 13.9-31.1 31.1-31.1 17.2 0 31.1 13.9 31.1 31.1v181.8c0 17.1-13.9 31.1-31.1 31.1z" fill="#06275B" p-id="13941"></path></svg>